<svg width="22" height="16" viewBox="0 0 22 16" fill="none" xmlns="http://www.w3.org/2000/svg">
<path d="M10.9069 0.119358L10.394 1.25928L14.1535 2.89605L10.6518 4.82944L9.92674 3.5163L8.6136 4.24132L9.33862 5.55446L1.45976 9.90459C0.488034 10.4411 0.139081 11.6504 0.675597 12.6221L2.12564 15.2484L3.8765 14.2817C4.26107 14.9783 4.90659 15.4935 5.67105 15.7141C6.43551 15.9347 7.25629 15.8426 7.95282 15.458C8.64936 15.0734 9.16459 14.4279 9.38518 13.6634C9.60577 12.899 9.51364 12.0782 9.12907 11.3816L14.3816 8.48156C14.7662 9.1781 15.4117 9.69333 16.1762 9.91392C16.9407 10.1345 17.7614 10.0424 18.458 9.65781C19.1545 9.27323 19.6697 8.62771 19.8903 7.86325C20.1109 7.09879 20.0188 6.27801 19.6342 5.58148L21.3851 4.61478L19.935 1.9885C19.3985 1.01677 18.1892 0.66782 17.2175 1.20434L15.4666 2.17103L10.9069 0.119358ZM5.77776 11.5185C6.12603 11.3263 6.53642 11.2802 6.91865 11.3905C7.30088 11.5008 7.62364 11.7584 7.81593 12.1067C8.00821 12.4549 8.05428 12.8653 7.94398 13.2476C7.83369 13.6298 7.57607 13.9525 7.2278 14.1448C6.87954 14.3371 6.46915 14.3832 6.08692 14.2729C5.70469 14.1626 5.38193 13.905 5.18964 13.5567C4.99735 13.2084 4.95129 12.7981 5.06158 12.4158C5.17188 12.0336 5.42949 11.7108 5.77776 11.5185ZM16.2829 5.71838C16.6312 5.52609 17.0416 5.48003 17.4238 5.59032C17.806 5.70062 18.1288 5.95823 18.3211 6.3065C18.5134 6.65477 18.5594 7.06516 18.4491 7.44739C18.3388 7.82962 18.0812 8.15238 17.7329 8.34466C17.3847 8.53695 16.9743 8.58301 16.5921 8.47272C16.2098 8.36243 15.8871 8.10481 15.6948 7.75654C15.5025 7.40828 15.4564 6.99788 15.5667 6.61566C15.677 6.23343 15.9346 5.91067 16.2829 5.71838Z" fill="#272D2D"/>
</svg>
