<svg width="27" height="30" viewBox="0 0 27 30" fill="none" xmlns="http://www.w3.org/2000/svg">
<path d="M3.75 25.875H8.625V16.125H18.375V25.875H23.25V11.25L13.5 3.9375L3.75 11.25V25.875ZM3.75 29.125C2.85625 29.125 2.09142 28.807 1.4555 28.1711C0.8185 27.5341 0.5 26.7687 0.5 25.875V11.25C0.5 10.7354 0.615375 10.2479 0.846125 9.7875C1.07579 9.32708 1.39375 8.94792 1.8 8.65L11.55 1.3375C11.8479 1.12083 12.1594 0.958333 12.4844 0.85C12.8094 0.741667 13.1479 0.6875 13.5 0.6875C13.8521 0.6875 14.1906 0.741667 14.5156 0.85C14.8406 0.958333 15.1521 1.12083 15.45 1.3375L25.2 8.65C25.6063 8.94792 25.9247 9.32708 26.1555 9.7875C26.3852 10.2479 26.5 10.7354 26.5 11.25V25.875C26.5 26.7687 26.182 27.5341 25.5461 28.1711C24.9091 28.807 24.1437 29.125 23.25 29.125H15.125V19.375H11.875V29.125H3.75Z" fill="#A39BA8"/>
</svg>
