<svg width="30" height="30" viewBox="0 0 30 30" fill="none" xmlns="http://www.w3.org/2000/svg">
<path fill-rule="evenodd" clip-rule="evenodd" d="M26.6667 13.3333C27.5076 13.3331 28.3176 13.6507 28.9342 14.2225C29.5509 14.7943 29.9286 15.5781 29.9917 16.4167L30 16.6667V26.6667C30.0003 27.5076 29.6827 28.3176 29.1108 28.9342C28.539 29.5509 27.7553 29.9286 26.9167 29.9917L26.6667 30H20C19.159 30.0003 18.3491 29.6827 17.7324 29.1108C17.1158 28.539 16.7381 27.7553 16.675 26.9167L16.6667 26.6667V16.6667C16.6664 15.8257 16.984 15.0157 17.5558 14.3991C18.1276 13.7825 18.9114 13.4047 19.75 13.3417L20 13.3333H26.6667ZM10 20C10.8841 20 11.7319 20.3512 12.357 20.9763C12.9821 21.6014 13.3333 22.4493 13.3333 23.3333V26.6667C13.3333 27.5507 12.9821 28.3986 12.357 29.0237C11.7319 29.6488 10.8841 30 10 30H3.33333C2.44928 30 1.60143 29.6488 0.976311 29.0237C0.351189 28.3986 0 27.5507 0 26.6667V23.3333C0 22.4493 0.351189 21.6014 0.976311 20.9763C1.60143 20.3512 2.44928 20 3.33333 20H10ZM26.6667 16.6667H20V26.6667H26.6667V16.6667ZM10 23.3333H3.33333V26.6667H10V23.3333ZM10 0C10.8841 0 11.7319 0.351189 12.357 0.976311C12.9821 1.60143 13.3333 2.44928 13.3333 3.33333V13.3333C13.3333 14.2174 12.9821 15.0652 12.357 15.6904C11.7319 16.3155 10.8841 16.6667 10 16.6667H3.33333C2.44928 16.6667 1.60143 16.3155 0.976311 15.6904C0.351189 15.0652 0 14.2174 0 13.3333V3.33333C0 2.44928 0.351189 1.60143 0.976311 0.976311C1.60143 0.351189 2.44928 0 3.33333 0H10ZM10 3.33333H3.33333V13.3333H10V3.33333ZM26.6667 0C27.5507 0 28.3986 0.351189 29.0237 0.976311C29.6488 1.60143 30 2.44928 30 3.33333V6.66667C30 7.55072 29.6488 8.39857 29.0237 9.02369C28.3986 9.64881 27.5507 10 26.6667 10H20C19.1159 10 18.2681 9.64881 17.643 9.02369C17.0179 8.39857 16.6667 7.55072 16.6667 6.66667V3.33333C16.6667 2.44928 17.0179 1.60143 17.643 0.976311C18.2681 0.351189 19.1159 0 20 0H26.6667ZM26.6667 3.33333H20V6.66667H26.6667V3.33333Z" fill="#A39BA8"/>
</svg>
