<svg width="26" height="32" viewBox="0 0 26 32" fill="none" xmlns="http://www.w3.org/2000/svg">
    <path
        d="M13 16C11.2583 16 9.83331 14.575 9.83331 12.8333C9.83331 11.0917 11.2583 9.66666 13 9.66666C14.7416 9.66666 16.1666 11.0917 16.1666 12.8333C16.1666 14.575 14.7416 16 13 16ZM22.5 13.15C22.5 7.40249 18.3041 3.33332 13 3.33332C7.69581 3.33332 3.49998 7.40249 3.49998 13.15C3.49998 16.855 6.58748 21.7633 13 27.6217C19.4125 21.7633 22.5 16.855 22.5 13.15ZM13 0.166656C19.65 0.166656 25.6666 5.26499 25.6666 13.15C25.6666 18.4067 21.4391 24.6292 13 31.8333C4.56081 24.6292 0.333313 18.4067 0.333313 13.15C0.333313 5.26499 6.34998 0.166656 13 0.166656Z"
        fill="#a39ba8" />
</svg>