<svg width="14" height="17" viewBox="0 0 14 17" fill="none" xmlns="http://www.w3.org/2000/svg">
<path d="M6.71423 8.71429C5.82375 8.71429 5.09518 7.98572 5.09518 7.09524C5.09518 6.20476 5.82375 5.47619 6.71423 5.47619C7.6047 5.47619 8.33327 6.20476 8.33327 7.09524C8.33327 7.98572 7.6047 8.71429 6.71423 8.71429ZM11.5714 7.25714C11.5714 4.31857 9.42613 2.2381 6.71423 2.2381C4.00232 2.2381 1.85708 4.31857 1.85708 7.25714C1.85708 9.15143 3.43566 11.661 6.71423 14.6562C9.9928 11.661 11.5714 9.15143 11.5714 7.25714ZM6.71423 0.619049C10.1142 0.619049 13.1904 3.22572 13.1904 7.25714C13.1904 9.94476 11.029 13.1262 6.71423 16.8095C2.39947 13.1262 0.238037 9.94476 0.238037 7.25714C0.238037 3.22572 3.31423 0.619049 6.71423 0.619049Z" fill="#EDF5FC"/>
</svg>
