<svg width="26" height="32" viewBox="0 0 26 32" fill="none" xmlns="http://www.w3.org/2000/svg">
<path d="M13 16C11.2584 16 9.83337 14.575 9.83337 12.8333C9.83337 11.0917 11.2584 9.66666 13 9.66666C14.7417 9.66666 16.1667 11.0917 16.1667 12.8333C16.1667 14.575 14.7417 16 13 16ZM22.5 13.15C22.5 7.40249 18.3042 3.33332 13 3.33332C7.69587 3.33332 3.50004 7.40249 3.50004 13.15C3.50004 16.855 6.58754 21.7633 13 27.6217C19.4125 21.7633 22.5 16.855 22.5 13.15ZM13 0.166656C19.65 0.166656 25.6667 5.26499 25.6667 13.15C25.6667 18.4067 21.4392 24.6292 13 31.8333C4.56087 24.6292 0.333374 18.4067 0.333374 13.15C0.333374 5.26499 6.35004 0.166656 13 0.166656Z" fill="#E2F1AF"/>
</svg>
