<svg width="38" height="48" viewBox="0 0 38 48" fill="none" xmlns="http://www.w3.org/2000/svg">
<path d="M19 24C16.3875 24 14.25 21.84 14.25 19.2C14.25 16.56 16.3875 14.4 19 14.4C21.6125 14.4 23.75 16.56 23.75 19.2C23.75 21.84 21.6125 24 19 24ZM33.25 19.68C33.25 10.968 26.9562 4.8 19 4.8C11.0437 4.8 4.75 10.968 4.75 19.68C4.75 25.296 9.38125 32.736 19 41.616C28.6187 32.736 33.25 25.296 33.25 19.68ZM19 0C28.975 0 38 7.728 38 19.68C38 27.648 31.6588 37.08 19 48C6.34125 37.08 0 27.648 0 19.68C0 7.728 9.025 0 19 0Z" fill="#272D2D"/>
</svg>
