<svg width="27" height="27" viewBox="0 0 27 27" fill="none" xmlns="http://www.w3.org/2000/svg">
<rect width="27" height="27" rx="13.5" fill="#D9D9D9"/>
<path d="M8.78571 19.3333C8.78571 20.25 9.49286 21 10.3571 21H16.6429C17.5071 21 18.2143 20.25 18.2143 19.3333V11C18.2143 10.0833 17.5071 9.33333 16.6429 9.33333H10.3571C9.49286 9.33333 8.78571 10.0833 8.78571 11V19.3333ZM18.2143 6.83333H16.25L15.6921 6.24167C15.5507 6.09167 15.3464 6 15.1421 6H11.8579C11.6536 6 11.4493 6.09167 11.3079 6.24167L10.75 6.83333H8.78571C8.35357 6.83333 8 7.20833 8 7.66667C8 8.125 8.35357 8.5 8.78571 8.5H18.2143C18.6464 8.5 19 8.125 19 7.66667C19 7.20833 18.6464 6.83333 18.2143 6.83333Z" fill="#EF4432"/>
</svg>
