<?xml version="1.0" standalone="no"?>
<!DOCTYPE svg PUBLIC "-//W3C//DTD SVG 20010904//EN"
 "http://www.w3.org/TR/2001/REC-SVG-20010904/DTD/svg10.dtd">
<svg version="1.0" xmlns="http://www.w3.org/2000/svg"
 width="251.000000pt" height="362.000000pt" viewBox="0 0 251.000000 362.000000"
 preserveAspectRatio="xMidYMid meet">

<g transform="translate(0.000000,362.000000) scale(0.100000,-0.100000)"
fill="#000000" stroke="none">
<path d="M1750 3599 c-814 -100 -1480 -627 -1684 -1333 -48 -164 -60 -257 -60
-461 0 -167 4 -205 27 -316 69 -325 218 -604 455 -851 394 -408 929 -628 1527
-628 165 0 395 23 465 47 8 2 -37 20 -100 38 -553 161 -1002 525 -1230 997
-28 57 -61 135 -74 173 l-24 70 -69 8 c-189 21 -362 103 -391 186 -12 33 -17
31 153 46 77 7 176 30 213 49 24 13 24 14 27 197 4 287 48 469 175 724 145
290 360 530 645 718 170 112 406 218 603 271 48 13 80 26 72 30 -8 3 -55 13
-105 22 -106 19 -508 28 -625 13z m-910 -976 c58 -23 108 -63 145 -115 25 -33
45 -50 65 -55 43 -8 27 -23 -25 -23 -31 0 -75 14 -143 44 -149 66 -196 79
-263 74 -32 -2 -59 -3 -59 -2 0 29 36 53 125 85 53 19 93 17 155 -8z m-136
-307 c17 -90 97 -116 143 -47 13 19 23 45 23 57 0 22 4 24 56 24 55 0 56 0 50
-26 -15 -56 -80 -116 -155 -142 -48 -17 -129 -15 -186 5 -56 19 -126 83 -143
131 l-11 32 108 0 109 0 6 -34z"/>
</g>
</svg>
